# xmcd
#
# Track frame offsets:
#	150
#	16840
#	42012
#
# Disc length: 818 seconds
#
# Revision: 7
# Processed by: cddbd v1.5.2PL0 Copyright (c) Steve Scherf et al.
# Submitted via: EZCDAudioConverter 8.3.2.1
#
DISCID=15033003
DTITLE=X-Pander - My Generation [CDM)
DYEAR=1994
DGENRE=Eurodance
TTITLE0=My Generation (Radio Edit)
TTITLE1=My Generation (Club Mix)
TTITLE2=My Generation (Generation Mix)
EXTD=
EXTT0=
EXTT1=
EXTT2=
PLAYORDER=
